<?xml version="1.0" encoding="utf-8"?>
<!-- Generator: Adobe Illustrator 25.0.0, SVG Export Plug-In . SVG Version: 6.00 Build 0)  -->
<svg version="1.0" id="Layer_1" xmlns="http://www.w3.org/2000/svg" xmlns:xlink="http://www.w3.org/1999/xlink" x="0px" y="0px"
	 viewBox="0 0 595.3 511.4" style="enable-background:new 0 0 595.3 511.4;" xml:space="preserve">
<style type="text/css">
	.st0{fill:#004740;}
	.st1{font-family:'ArtisualDecoDEMO-Regular';}
	.st2{font-size:194.3454px;}
	.st3{fill:#022C64;}
	.st4{fill:#FFFFFF;}
	.st5{fill:#FF6379;}
	.st6{font-family:'Signatria-Regular';}
	.st7{font-size:254.1636px;}
	.st8{font-size:319.7301px;}
	.st9{letter-spacing:-6;}
	.st10{letter-spacing:-4.8;}
	.st11{fill:#0593D0;}
	.st12{font-family:'Copperplate';}
	.st13{font-size:138.1737px;}
</style>
<g>
	<text transform="matrix(1.04 0 0 1.03 9.2031 198.8427)" class="st0 st1 st2">T  I  E</text>
	<text transform="matrix(1.04 0 0 1.03 9.2031 198.8427)" class="st3 st1 st2">T  I  E</text>
</g>
<g>
	<line class="st4" x1="531.9" y1="321.6" x2="586.1" y2="321.6"/>
	<g>
		<path class="st3" d="M531.9,326.1c6.1,0,12.2,0,18.3,0c9.8,0,19.5,0,29.3,0c2.2,0,4.5,0,6.7,0c2.4,0,4.6-2.1,4.5-4.5
			c-0.1-2.4-2-4.5-4.5-4.5c-6.1,0-12.2,0-18.3,0c-9.8,0-19.5,0-29.3,0c-2.2,0-4.5,0-6.7,0c-2.4,0-4.6,2.1-4.5,4.5
			C527.5,324,529.4,326.1,531.9,326.1L531.9,326.1z"/>
	</g>
</g>
<g>
	<text transform="matrix(0.84 0 0 1 151.6846 381.8349)" class="st5 st6 st7">E</text>
</g>
<text transform="matrix(0.84 0 0 1 120.4824 430.0302)"><tspan x="0" y="0" class="st5 st6 st8 st9">  </tspan><tspan x="143.9" y="0" class="st5 st6 st7 st10">a</tspan><tspan x="213" y="0" class="st5 st6 st7">sy</tspan></text>
<text transform="matrix(0.84 0 0 1 102.624 340.9394)" class="st11 st12 st13">tech it</text>
<g>
	<g>
		<path class="st3" d="M22.9,326.1c6.2,0,12.5,0,18.7,0c10,0,19.9,0,29.9,0c2.3,0,4.5,0,6.8,0c2.4,0,4.6-2.1,4.5-4.5
			c-0.1-2.4-2-4.5-4.5-4.5c-6.2,0-12.5,0-18.7,0c-10,0-19.9,0-29.9,0c-2.3,0-4.5,0-6.8,0c-2.4,0-4.6,2.1-4.5,4.5
			C18.5,324,20.4,326.1,22.9,326.1L22.9,326.1z"/>
	</g>
</g>
<rect x="123.4" y="645.4" style="fill:none;" width="4.6" height="0.9"/>
</svg>
